<mxfile host="Electron" agent="Mozilla/5.0 (Macintosh; Intel Mac OS X 10_15_7) AppleWebKit/537.36 (KHTML, like Gecko) draw.io/26.2.2 Chrome/134.0.6998.178 Electron/35.1.2 Safari/537.36" version="26.2.2">
  <diagram name="Page-1" id="ad52d381-51e7-2e0d-a935-2d0ddd2fd229">
    <mxGraphModel dx="3733" dy="2327" grid="1" gridSize="10" guides="1" tooltips="1" connect="1" arrows="1" fold="1" page="1" pageScale="1" pageWidth="1700" pageHeight="1100" background="none" math="0" shadow="0">
      <root>
        <mxCell id="0" />
        <mxCell id="1" parent="0" />
        <mxCell id="2c924340bb9dbf6c-1" value="&lt;span&gt;beat the baseline&lt;/span&gt;" style="whiteSpace=wrap;html=1;rounded=1;shadow=1;comic=0;labelBackgroundColor=none;strokeWidth=2;fontFamily=Verdana;fontSize=12;align=center;arcSize=50;" parent="1" vertex="1">
          <mxGeometry y="45" width="110" height="30" as="geometry" />
        </mxCell>
        <mxCell id="2c924340bb9dbf6c-2" value="&lt;font style=&quot;color: rgb(0, 153, 0);&quot;&gt;&lt;b&gt;DEVELOP&lt;/b&gt;&lt;/font&gt;" style="ellipse;whiteSpace=wrap;html=1;rounded=1;shadow=1;comic=0;labelBackgroundColor=none;strokeWidth=2;fontFamily=Verdana;fontSize=12;align=center;" parent="1" vertex="1">
          <mxGeometry x="260" y="110" width="120" height="80" as="geometry" />
        </mxCell>
        <mxCell id="2c924340bb9dbf6c-3" value="&lt;span&gt;&lt;font style=&quot;color: rgb(126, 166, 224);&quot;&gt;&lt;b&gt;DEFINE&lt;/b&gt;&lt;/font&gt;&lt;/span&gt;" style="ellipse;whiteSpace=wrap;html=1;rounded=1;shadow=1;comic=0;labelBackgroundColor=none;strokeWidth=2;fontFamily=Verdana;fontSize=12;align=center;" parent="1" vertex="1">
          <mxGeometry x="650" y="110" width="120" height="80" as="geometry" />
        </mxCell>
        <mxCell id="5ybgmyVkbaXbAMV7yP6f-2" value="" style="edgeStyle=orthogonalEdgeStyle;rounded=0;orthogonalLoop=1;jettySize=auto;html=1;" edge="1" parent="1" source="2c924340bb9dbf6c-4" target="2c924340bb9dbf6c-51">
          <mxGeometry relative="1" as="geometry" />
        </mxCell>
        <mxCell id="2c924340bb9dbf6c-4" value="Universal workflow of machine learning" style="ellipse;whiteSpace=wrap;html=1;rounded=1;shadow=1;comic=0;labelBackgroundColor=none;strokeWidth=2;fontFamily=Verdana;fontSize=12;align=center;" parent="1" vertex="1">
          <mxGeometry x="510" y="250" width="140" height="130" as="geometry" />
        </mxCell>
        <mxCell id="5ybgmyVkbaXbAMV7yP6f-78" value="" style="edgeStyle=orthogonalEdgeStyle;rounded=0;orthogonalLoop=1;jettySize=auto;html=1;" edge="1" parent="1" source="2c924340bb9dbf6c-5" target="5ybgmyVkbaXbAMV7yP6f-77">
          <mxGeometry relative="1" as="geometry" />
        </mxCell>
        <mxCell id="5ybgmyVkbaXbAMV7yP6f-79" value="&lt;b&gt;A / B Testing&lt;/b&gt;" style="edgeLabel;html=1;align=center;verticalAlign=middle;resizable=0;points=[];" vertex="1" connectable="0" parent="5ybgmyVkbaXbAMV7yP6f-78">
          <mxGeometry x="-0.375" y="-2" relative="1" as="geometry">
            <mxPoint as="offset" />
          </mxGeometry>
        </mxCell>
        <mxCell id="2c924340bb9dbf6c-5" value="&lt;span&gt;DEPLOY&lt;/span&gt;" style="ellipse;whiteSpace=wrap;html=1;rounded=1;shadow=1;comic=0;labelBackgroundColor=none;strokeWidth=2;fontFamily=Verdana;fontSize=12;align=center;" parent="1" vertex="1">
          <mxGeometry x="630" y="420" width="120" height="80" as="geometry" />
        </mxCell>
        <mxCell id="2c924340bb9dbf6c-8" value="&lt;span&gt;Evaluation protocol&lt;/span&gt;" style="whiteSpace=wrap;html=1;rounded=1;shadow=1;comic=0;labelBackgroundColor=none;strokeWidth=2;fontFamily=Verdana;fontSize=12;align=center;arcSize=50;" parent="1" vertex="1">
          <mxGeometry x="100" y="150" width="110" height="40" as="geometry" />
        </mxCell>
        <mxCell id="2c924340bb9dbf6c-9" value="&lt;span&gt;Regularize and tune&lt;/span&gt;" style="whiteSpace=wrap;html=1;rounded=1;shadow=1;comic=0;labelBackgroundColor=none;strokeWidth=2;fontFamily=Verdana;fontSize=12;align=center;arcSize=50;" parent="1" vertex="1">
          <mxGeometry x="175" y="230" width="110" height="40" as="geometry" />
        </mxCell>
        <mxCell id="2c924340bb9dbf6c-10" value="&lt;span&gt;Prepare data&lt;/span&gt;" style="whiteSpace=wrap;html=1;rounded=1;shadow=1;comic=0;labelBackgroundColor=none;strokeWidth=2;fontFamily=Verdana;fontSize=12;align=center;arcSize=50;" parent="1" vertex="1">
          <mxGeometry x="320" y="40" width="100" height="20" as="geometry" />
        </mxCell>
        <mxCell id="2c924340bb9dbf6c-11" value="&lt;span&gt;Understand the problem&lt;/span&gt;" style="whiteSpace=wrap;html=1;rounded=1;shadow=1;comic=0;labelBackgroundColor=none;strokeWidth=2;fontFamily=Verdana;fontSize=12;align=center;arcSize=50;" parent="1" vertex="1">
          <mxGeometry x="540" y="40" width="130" height="40" as="geometry" />
        </mxCell>
        <mxCell id="2c924340bb9dbf6c-12" value="&lt;span&gt;Present to stakeholders&lt;/span&gt;" style="whiteSpace=wrap;html=1;rounded=1;shadow=1;comic=0;labelBackgroundColor=none;strokeWidth=2;fontFamily=Verdana;fontSize=12;align=center;arcSize=50;" parent="1" vertex="1">
          <mxGeometry x="830" y="450" width="120" height="40" as="geometry" />
        </mxCell>
        <mxCell id="2c924340bb9dbf6c-15" value="&lt;span&gt;Collect data&lt;/span&gt;" style="whiteSpace=wrap;html=1;rounded=1;shadow=1;comic=0;labelBackgroundColor=none;strokeWidth=2;fontFamily=Verdana;fontSize=12;align=center;arcSize=50;" parent="1" vertex="1">
          <mxGeometry x="770" y="40" width="100" height="20" as="geometry" />
        </mxCell>
        <mxCell id="2c924340bb9dbf6c-17" value="&lt;span&gt;Measure success&lt;/span&gt;" style="whiteSpace=wrap;html=1;rounded=1;shadow=1;comic=0;labelBackgroundColor=none;strokeWidth=2;fontFamily=Verdana;fontSize=12;align=center;arcSize=50;" parent="1" vertex="1">
          <mxGeometry x="860" y="135" width="120" height="30" as="geometry" />
        </mxCell>
        <mxCell id="5ybgmyVkbaXbAMV7yP6f-69" value="" style="edgeStyle=orthogonalEdgeStyle;rounded=0;orthogonalLoop=1;jettySize=auto;html=1;fillColor=#e1d5e7;strokeColor=#9673a6;" edge="1" parent="1" source="2c924340bb9dbf6c-22" target="5ybgmyVkbaXbAMV7yP6f-68">
          <mxGeometry relative="1" as="geometry" />
        </mxCell>
        <mxCell id="5ybgmyVkbaXbAMV7yP6f-70" value="&lt;b&gt;&lt;font style=&quot;font-size: 13px;&quot;&gt;Inference&lt;/font&gt;&lt;/b&gt;" style="edgeLabel;html=1;align=center;verticalAlign=middle;resizable=0;points=[];" vertex="1" connectable="0" parent="5ybgmyVkbaXbAMV7yP6f-69">
          <mxGeometry x="-0.4116" y="2" relative="1" as="geometry">
            <mxPoint as="offset" />
          </mxGeometry>
        </mxCell>
        <mxCell id="5ybgmyVkbaXbAMV7yP6f-72" value="" style="edgeStyle=orthogonalEdgeStyle;rounded=0;orthogonalLoop=1;jettySize=auto;html=1;fillColor=#e1d5e7;strokeColor=#9673a6;" edge="1" parent="1" source="2c924340bb9dbf6c-22" target="5ybgmyVkbaXbAMV7yP6f-71">
          <mxGeometry relative="1" as="geometry" />
        </mxCell>
        <mxCell id="2c924340bb9dbf6c-22" value="&lt;span&gt;Ship it&lt;/span&gt;" style="whiteSpace=wrap;html=1;rounded=1;shadow=1;comic=0;labelBackgroundColor=none;strokeWidth=2;fontFamily=Verdana;fontSize=12;align=center;arcSize=50;" parent="1" vertex="1">
          <mxGeometry x="780" y="540" width="100" height="20" as="geometry" />
        </mxCell>
        <mxCell id="5ybgmyVkbaXbAMV7yP6f-7" value="" style="edgeStyle=orthogonalEdgeStyle;rounded=0;orthogonalLoop=1;jettySize=auto;html=1;fillColor=#dae8fc;strokeColor=#6c8ebf;" edge="1" parent="1" source="2c924340bb9dbf6c-23" target="5ybgmyVkbaXbAMV7yP6f-6">
          <mxGeometry relative="1" as="geometry" />
        </mxCell>
        <mxCell id="2c924340bb9dbf6c-23" value="Third party services like Mechanical Turk" style="whiteSpace=wrap;html=1;rounded=1;shadow=1;comic=0;labelBackgroundColor=none;strokeWidth=2;fontFamily=Verdana;fontSize=12;align=center;arcSize=50;" parent="1" vertex="1">
          <mxGeometry x="780" y="-280" width="120" height="60" as="geometry" />
        </mxCell>
        <mxCell id="2c924340bb9dbf6c-24" value="outsource annotation?" style="rhombus;whiteSpace=wrap;html=1;rounded=0;shadow=1;comic=0;labelBackgroundColor=none;strokeWidth=2;fontFamily=Verdana;fontSize=12;align=center;" parent="1" vertex="1">
          <mxGeometry x="770" y="-140" width="120" height="100" as="geometry" />
        </mxCell>
        <mxCell id="2c924340bb9dbf6c-27" value="" style="edgeStyle=none;rounded=1;html=1;labelBackgroundColor=none;startArrow=none;startFill=0;startSize=5;endArrow=classicThin;endFill=1;endSize=5;jettySize=auto;orthogonalLoop=1;strokeColor=#82b366;strokeWidth=1;fontFamily=Verdana;fontSize=12;fillColor=#d5e8d4;" parent="1" source="2c924340bb9dbf6c-2" target="2c924340bb9dbf6c-10" edge="1">
          <mxGeometry relative="1" as="geometry" />
        </mxCell>
        <mxCell id="2c924340bb9dbf6c-28" value="" style="edgeStyle=none;rounded=1;html=1;labelBackgroundColor=none;startArrow=none;startFill=0;startSize=5;endArrow=classicThin;endFill=1;endSize=5;jettySize=auto;orthogonalLoop=1;strokeColor=#82b366;strokeWidth=1;fontFamily=Verdana;fontSize=12;fillColor=#d5e8d4;" parent="1" source="2c924340bb9dbf6c-2" target="2c924340bb9dbf6c-1" edge="1">
          <mxGeometry x="-0.0116" relative="1" as="geometry">
            <mxPoint as="offset" />
          </mxGeometry>
        </mxCell>
        <mxCell id="5ybgmyVkbaXbAMV7yP6f-51" value="&lt;font style=&quot;color: rgb(0, 153, 0);&quot;&gt;&lt;b&gt;Statistical POWER&lt;/b&gt;&lt;/font&gt;" style="edgeLabel;html=1;align=center;verticalAlign=middle;resizable=0;points=[];" vertex="1" connectable="0" parent="2c924340bb9dbf6c-28">
          <mxGeometry x="0.2228" y="-1" relative="1" as="geometry">
            <mxPoint as="offset" />
          </mxGeometry>
        </mxCell>
        <mxCell id="2c924340bb9dbf6c-29" value="" style="edgeStyle=none;rounded=1;html=1;labelBackgroundColor=none;startArrow=none;startFill=0;startSize=5;endArrow=classicThin;endFill=1;endSize=5;jettySize=auto;orthogonalLoop=1;strokeColor=#82b366;strokeWidth=1;fontFamily=Verdana;fontSize=12;fillColor=#d5e8d4;" parent="1" source="2c924340bb9dbf6c-2" target="2c924340bb9dbf6c-8" edge="1">
          <mxGeometry relative="1" as="geometry" />
        </mxCell>
        <mxCell id="2c924340bb9dbf6c-30" value="" style="edgeStyle=none;rounded=1;html=1;labelBackgroundColor=none;startArrow=none;startFill=0;startSize=5;endArrow=classicThin;endFill=1;endSize=5;jettySize=auto;orthogonalLoop=1;strokeColor=#82b366;strokeWidth=1;fontFamily=Verdana;fontSize=12;fillColor=#d5e8d4;" parent="1" source="2c924340bb9dbf6c-2" target="2c924340bb9dbf6c-9" edge="1">
          <mxGeometry relative="1" as="geometry" />
        </mxCell>
        <mxCell id="2c924340bb9dbf6c-31" value="" style="edgeStyle=none;rounded=1;html=1;labelBackgroundColor=none;startArrow=none;startFill=0;startSize=5;endArrow=classicThin;endFill=1;endSize=5;jettySize=auto;orthogonalLoop=1;strokeColor=#82b366;strokeWidth=1;fontFamily=Verdana;fontSize=12;fillColor=#d5e8d4;" parent="1" source="2c924340bb9dbf6c-4" target="2c924340bb9dbf6c-2" edge="1">
          <mxGeometry relative="1" as="geometry" />
        </mxCell>
        <mxCell id="2c924340bb9dbf6c-32" value="" style="edgeStyle=none;rounded=1;html=1;labelBackgroundColor=none;startArrow=none;startFill=0;startSize=5;endArrow=classicThin;endFill=1;endSize=5;jettySize=auto;orthogonalLoop=1;strokeColor=#6c8ebf;strokeWidth=1;fontFamily=Verdana;fontSize=12;fillColor=#dae8fc;" parent="1" source="2c924340bb9dbf6c-4" target="2c924340bb9dbf6c-3" edge="1">
          <mxGeometry relative="1" as="geometry" />
        </mxCell>
        <mxCell id="2c924340bb9dbf6c-33" value="" style="edgeStyle=none;rounded=1;html=1;labelBackgroundColor=none;startArrow=none;startFill=0;startSize=5;endArrow=classicThin;endFill=1;endSize=5;jettySize=auto;orthogonalLoop=1;strokeColor=#9673a6;strokeWidth=1;fontFamily=Verdana;fontSize=12;fillColor=#e1d5e7;" parent="1" target="2c924340bb9dbf6c-5" edge="1">
          <mxGeometry relative="1" as="geometry">
            <mxPoint x="620" y="368" as="sourcePoint" />
          </mxGeometry>
        </mxCell>
        <mxCell id="2c924340bb9dbf6c-38" value="" style="edgeStyle=none;rounded=1;html=1;labelBackgroundColor=none;startArrow=none;startFill=0;startSize=5;endArrow=classicThin;endFill=1;endSize=5;jettySize=auto;orthogonalLoop=1;strokeColor=#9673a6;strokeWidth=1;fontFamily=Verdana;fontSize=12;exitX=1;exitY=0.5;exitDx=0;exitDy=0;fillColor=#e1d5e7;" parent="1" source="2c924340bb9dbf6c-5" target="2c924340bb9dbf6c-12" edge="1">
          <mxGeometry relative="1" as="geometry">
            <mxPoint x="905.7794400802613" y="482.1097539181833" as="sourcePoint" />
          </mxGeometry>
        </mxCell>
        <mxCell id="2c924340bb9dbf6c-39" value="" style="edgeStyle=none;rounded=1;html=1;labelBackgroundColor=none;startArrow=none;startFill=0;startSize=5;endArrow=classicThin;endFill=1;endSize=5;jettySize=auto;orthogonalLoop=1;strokeColor=#9673a6;strokeWidth=1;fontFamily=Verdana;fontSize=12;exitX=1;exitY=1;exitDx=0;exitDy=0;fillColor=#e1d5e7;" parent="1" source="2c924340bb9dbf6c-5" edge="1">
          <mxGeometry relative="1" as="geometry">
            <mxPoint x="866.7321304102729" y="489.9406283188873" as="sourcePoint" />
            <mxPoint x="810" y="540" as="targetPoint" />
          </mxGeometry>
        </mxCell>
        <mxCell id="2c924340bb9dbf6c-42" value="" style="edgeStyle=none;rounded=1;html=1;labelBackgroundColor=none;startArrow=none;startFill=0;startSize=5;endArrow=classicThin;endFill=1;endSize=5;jettySize=auto;orthogonalLoop=1;strokeColor=#6c8ebf;strokeWidth=1;fontFamily=Verdana;fontSize=12;fillColor=#dae8fc;" parent="1" source="2c924340bb9dbf6c-3" target="2c924340bb9dbf6c-17" edge="1">
          <mxGeometry relative="1" as="geometry">
            <Array as="points">
              <mxPoint x="810" y="140" />
            </Array>
          </mxGeometry>
        </mxCell>
        <mxCell id="2c924340bb9dbf6c-44" value="" style="edgeStyle=none;rounded=1;html=1;labelBackgroundColor=none;startArrow=none;startFill=0;startSize=5;endArrow=classicThin;endFill=1;endSize=5;jettySize=auto;orthogonalLoop=1;strokeColor=#6c8ebf;strokeWidth=1;fontFamily=Verdana;fontSize=12;fillColor=#dae8fc;" parent="1" source="2c924340bb9dbf6c-3" target="2c924340bb9dbf6c-15" edge="1">
          <mxGeometry relative="1" as="geometry" />
        </mxCell>
        <mxCell id="2c924340bb9dbf6c-46" value="" style="edgeStyle=none;rounded=1;html=1;labelBackgroundColor=none;startArrow=none;startFill=0;startSize=5;endArrow=classicThin;endFill=1;endSize=5;jettySize=auto;orthogonalLoop=1;strokeColor=#6c8ebf;strokeWidth=1;fontFamily=Verdana;fontSize=12;fillColor=#dae8fc;" parent="1" source="2c924340bb9dbf6c-3" target="2c924340bb9dbf6c-11" edge="1">
          <mxGeometry x="0.0124" relative="1" as="geometry">
            <mxPoint as="offset" />
          </mxGeometry>
        </mxCell>
        <mxCell id="2c924340bb9dbf6c-49" value="&lt;font style=&quot;font-size: 13px;&quot;&gt;&lt;b&gt;investing in data annotation&lt;/b&gt;&lt;/font&gt;&lt;div&gt;&lt;font style=&quot;font-size: 13px;&quot;&gt;&lt;b&gt;infrastructure&lt;/b&gt;&lt;/font&gt;&lt;/div&gt;" style="edgeStyle=none;rounded=1;html=1;labelBackgroundColor=none;startArrow=none;startFill=0;startSize=5;endArrow=classicThin;endFill=1;endSize=5;jettySize=auto;orthogonalLoop=1;strokeColor=#6c8ebf;strokeWidth=1;fontFamily=Verdana;fontSize=12;exitX=0.5;exitY=0;exitDx=0;exitDy=0;fillColor=#dae8fc;" parent="1" source="2c924340bb9dbf6c-15" target="2c924340bb9dbf6c-24" edge="1">
          <mxGeometry relative="1" as="geometry">
            <mxPoint x="830" y="-80" as="sourcePoint" />
          </mxGeometry>
        </mxCell>
        <mxCell id="2c924340bb9dbf6c-50" value="&lt;font style=&quot;font-size: 14px;&quot;&gt;Yes&lt;/font&gt;" style="edgeStyle=none;rounded=1;html=1;labelBackgroundColor=none;startArrow=none;startFill=0;startSize=5;endArrow=classicThin;endFill=1;endSize=5;jettySize=auto;orthogonalLoop=1;strokeColor=#6c8ebf;strokeWidth=1;fontFamily=Verdana;fontSize=12;fillColor=#dae8fc;" parent="1" source="2c924340bb9dbf6c-24" target="2c924340bb9dbf6c-23" edge="1">
          <mxGeometry x="-0.7935" y="10" relative="1" as="geometry">
            <mxPoint as="offset" />
          </mxGeometry>
        </mxCell>
        <mxCell id="5ybgmyVkbaXbAMV7yP6f-4" value="" style="edgeStyle=orthogonalEdgeStyle;rounded=0;orthogonalLoop=1;jettySize=auto;html=1;" edge="1" parent="1" source="2c924340bb9dbf6c-51" target="5ybgmyVkbaXbAMV7yP6f-3">
          <mxGeometry relative="1" as="geometry" />
        </mxCell>
        <mxCell id="2c924340bb9dbf6c-51" value="Ethics" style="rounded=1;whiteSpace=wrap;html=1;shadow=1;comic=0;labelBackgroundColor=none;strokeWidth=2;fontFamily=Verdana;fontSize=12;align=center;" parent="1" vertex="1">
          <mxGeometry x="710" y="285" width="120" height="60" as="geometry" />
        </mxCell>
        <mxCell id="2c924340bb9dbf6c-58" value="&lt;span&gt;collect for the next&lt;/span&gt;" style="whiteSpace=wrap;html=1;rounded=1;shadow=1;comic=0;labelBackgroundColor=none;strokeWidth=2;fontFamily=Verdana;fontSize=12;align=center;arcSize=50;" parent="1" vertex="1">
          <mxGeometry x="620" y="570" width="110" height="30" as="geometry" />
        </mxCell>
        <mxCell id="2c924340bb9dbf6c-60" value="&lt;span&gt;&lt;font style=&quot;color: rgb(126, 166, 224); font-size: 13px;&quot;&gt;&lt;b&gt;Kaggle.com&lt;/b&gt;&lt;/font&gt;&lt;/span&gt;" style="whiteSpace=wrap;html=1;rounded=1;shadow=1;comic=0;labelBackgroundColor=none;strokeWidth=2;fontFamily=Verdana;fontSize=12;align=center;arcSize=50;" parent="1" vertex="1">
          <mxGeometry x="300" y="380" width="100" height="20" as="geometry" />
        </mxCell>
        <mxCell id="2c924340bb9dbf6c-67" value="&lt;span&gt;annotate yourself&lt;/span&gt;" style="ellipse;whiteSpace=wrap;html=1;rounded=1;shadow=1;comic=0;labelBackgroundColor=none;strokeWidth=2;fontFamily=Verdana;fontSize=12;align=center;" parent="1" vertex="1">
          <mxGeometry x="930" y="-130" width="120" height="80" as="geometry" />
        </mxCell>
        <mxCell id="2c924340bb9dbf6c-75" value="&lt;font style=&quot;font-size: 14px;&quot;&gt;No&lt;/font&gt;" style="edgeStyle=none;rounded=1;html=1;labelBackgroundColor=none;startArrow=none;startFill=0;startSize=5;endArrow=classicThin;endFill=1;endSize=5;jettySize=auto;orthogonalLoop=1;strokeColor=#6c8ebf;strokeWidth=1;fontFamily=Verdana;fontSize=12;fillColor=#dae8fc;" parent="1" source="2c924340bb9dbf6c-24" target="2c924340bb9dbf6c-67" edge="1">
          <mxGeometry x="-0.504" y="20" relative="1" as="geometry">
            <mxPoint as="offset" />
          </mxGeometry>
        </mxCell>
        <mxCell id="2c924340bb9dbf6c-76" value="examples" style="edgeStyle=none;rounded=1;html=1;labelBackgroundColor=none;startArrow=none;startFill=0;startSize=5;endArrow=classicThin;endFill=1;endSize=5;jettySize=auto;orthogonalLoop=1;strokeColor=#B3B3B3;strokeWidth=1;fontFamily=Verdana;fontSize=12" parent="1" source="2c924340bb9dbf6c-4" target="2c924340bb9dbf6c-60" edge="1">
          <mxGeometry relative="1" as="geometry" />
        </mxCell>
        <mxCell id="2c924340bb9dbf6c-77" value="" style="edgeStyle=none;rounded=1;html=1;labelBackgroundColor=none;startArrow=none;startFill=0;startSize=5;endArrow=classicThin;endFill=1;endSize=5;jettySize=auto;orthogonalLoop=1;strokeColor=#9673a6;strokeWidth=1;fontFamily=Verdana;fontSize=12;fillColor=#e1d5e7;" parent="1" source="2c924340bb9dbf6c-5" target="2c924340bb9dbf6c-58" edge="1">
          <mxGeometry relative="1" as="geometry" />
        </mxCell>
        <mxCell id="5ybgmyVkbaXbAMV7yP6f-3" value="Models carry more weight on decisions than people; BE DELIBERATE" style="rounded=1;whiteSpace=wrap;html=1;shadow=1;comic=0;labelBackgroundColor=none;strokeWidth=2;fontFamily=Verdana;fontSize=12;align=center;" vertex="1" parent="1">
          <mxGeometry x="910" y="285" width="130" height="75" as="geometry" />
        </mxCell>
        <mxCell id="5ybgmyVkbaXbAMV7yP6f-6" value="&lt;b&gt;Train&lt;/b&gt; should&lt;div&gt;represent &lt;b&gt;PROD&lt;/b&gt;&lt;/div&gt;" style="ellipse;shape=cloud;whiteSpace=wrap;html=1;fontFamily=Verdana;rounded=1;shadow=1;comic=0;labelBackgroundColor=none;strokeWidth=2;arcSize=50;" vertex="1" parent="1">
          <mxGeometry x="950" y="-310" width="160" height="120" as="geometry" />
        </mxCell>
        <mxCell id="5ybgmyVkbaXbAMV7yP6f-8" value="" style="endArrow=classic;html=1;rounded=0;fillColor=#dae8fc;strokeColor=#6c8ebf;" edge="1" parent="1" target="5ybgmyVkbaXbAMV7yP6f-6">
          <mxGeometry width="50" height="50" relative="1" as="geometry">
            <mxPoint x="990" y="-130" as="sourcePoint" />
            <mxPoint x="1040" y="-180" as="targetPoint" />
          </mxGeometry>
        </mxCell>
        <mxCell id="5ybgmyVkbaXbAMV7yP6f-9" value="" style="curved=1;endArrow=classic;html=1;rounded=0;exitX=0.875;exitY=0.5;exitDx=0;exitDy=0;exitPerimeter=0;fillColor=#dae8fc;strokeColor=#6c8ebf;" edge="1" parent="1" source="5ybgmyVkbaXbAMV7yP6f-6">
          <mxGeometry width="50" height="50" relative="1" as="geometry">
            <mxPoint x="1100" y="-260" as="sourcePoint" />
            <mxPoint x="1150" y="-310" as="targetPoint" />
            <Array as="points">
              <mxPoint x="1150" y="-260" />
              <mxPoint x="1100" y="-310" />
            </Array>
          </mxGeometry>
        </mxCell>
        <mxCell id="5ybgmyVkbaXbAMV7yP6f-10" value="&lt;b&gt;&lt;font style=&quot;font-size: 13px;&quot;&gt;Concept drift&lt;/font&gt;&lt;/b&gt; when data changes over time" style="shape=tape;whiteSpace=wrap;html=1;" vertex="1" parent="1">
          <mxGeometry x="1150" y="-370" width="230" height="120" as="geometry" />
        </mxCell>
        <mxCell id="5ybgmyVkbaXbAMV7yP6f-11" value="" style="endArrow=classic;html=1;rounded=0;exitX=1;exitY=0.5;exitDx=0;exitDy=0;fillColor=#dae8fc;strokeColor=#6c8ebf;" edge="1" parent="1" source="2c924340bb9dbf6c-15">
          <mxGeometry relative="1" as="geometry">
            <mxPoint x="880" y="50" as="sourcePoint" />
            <mxPoint x="1040" y="50" as="targetPoint" />
          </mxGeometry>
        </mxCell>
        <mxCell id="5ybgmyVkbaXbAMV7yP6f-12" value="Sampling Bias" style="edgeLabel;resizable=0;html=1;;align=center;verticalAlign=middle;" connectable="0" vertex="1" parent="5ybgmyVkbaXbAMV7yP6f-11">
          <mxGeometry relative="1" as="geometry" />
        </mxCell>
        <mxCell id="5ybgmyVkbaXbAMV7yP6f-14" value="" style="swimlane;startSize=0;" vertex="1" parent="1">
          <mxGeometry x="1040" y="-20" width="130" height="120" as="geometry" />
        </mxCell>
        <mxCell id="5ybgmyVkbaXbAMV7yP6f-15" value="&lt;b&gt;Non representative&lt;/b&gt;&lt;div&gt;&lt;br&gt;&lt;/div&gt;&lt;div&gt;&lt;b&gt;collection interacts&lt;/b&gt;&lt;/div&gt;&lt;div&gt;&lt;b&gt;with prediction&lt;/b&gt;&lt;/div&gt;" style="text;html=1;align=center;verticalAlign=middle;resizable=0;points=[];autosize=1;strokeColor=none;fillColor=none;" vertex="1" parent="5ybgmyVkbaXbAMV7yP6f-14">
          <mxGeometry y="30" width="130" height="70" as="geometry" />
        </mxCell>
        <mxCell id="5ybgmyVkbaXbAMV7yP6f-16" value="" style="endArrow=classic;startArrow=classic;html=1;rounded=0;entryX=0.5;entryY=1;entryDx=0;entryDy=0;fillColor=#dae8fc;strokeColor=#6c8ebf;" edge="1" parent="1" target="5ybgmyVkbaXbAMV7yP6f-17">
          <mxGeometry width="50" height="50" relative="1" as="geometry">
            <mxPoint x="600" y="37" as="sourcePoint" />
            <mxPoint x="600" y="-60" as="targetPoint" />
          </mxGeometry>
        </mxCell>
        <mxCell id="5ybgmyVkbaXbAMV7yP6f-19" value="&lt;font style=&quot;color: rgb(255, 51, 51); font-size: 13px;&quot;&gt;&lt;b style=&quot;&quot;&gt;Target LEAKING&lt;/b&gt;&lt;/font&gt;" style="edgeLabel;html=1;align=center;verticalAlign=middle;resizable=0;points=[];" vertex="1" connectable="0" parent="5ybgmyVkbaXbAMV7yP6f-16">
          <mxGeometry x="0.1001" relative="1" as="geometry">
            <mxPoint as="offset" />
          </mxGeometry>
        </mxCell>
        <mxCell id="5ybgmyVkbaXbAMV7yP6f-17" value="&lt;b&gt;Features&lt;/b&gt; giving &lt;b&gt;info&lt;/b&gt; about &lt;b&gt;targets&lt;/b&gt;" style="rounded=1;whiteSpace=wrap;html=1;" vertex="1" parent="1">
          <mxGeometry x="545" y="-130" width="120" height="60" as="geometry" />
        </mxCell>
        <mxCell id="5ybgmyVkbaXbAMV7yP6f-20" value="&lt;b&gt;&lt;font style=&quot;font-size: 13px;&quot;&gt;Common metrics&lt;/font&gt;&lt;/b&gt;" style="whiteSpace=wrap;html=1;shape=partialRectangle;top=0;left=0;bottom=1;right=0;points=[[0,1],[1,1]];fillColor=#dae8fc;align=center;verticalAlign=bottom;routingCenterY=0.5;snapToPoint=1;recursiveResize=0;autosize=1;treeFolding=1;treeMoving=1;newEdgeStyle={&quot;edgeStyle&quot;:&quot;entityRelationEdgeStyle&quot;,&quot;startArrow&quot;:&quot;none&quot;,&quot;endArrow&quot;:&quot;none&quot;,&quot;segment&quot;:10,&quot;curved&quot;:1,&quot;sourcePerimeterSpacing&quot;:0,&quot;targetPerimeterSpacing&quot;:0};strokeColor=#6c8ebf;" vertex="1" parent="1">
          <mxGeometry x="1065" y="110" width="205" height="30" as="geometry" />
        </mxCell>
        <mxCell id="5ybgmyVkbaXbAMV7yP6f-21" value="" style="edgeStyle=entityRelationEdgeStyle;startArrow=none;endArrow=none;segment=10;curved=1;sourcePerimeterSpacing=0;targetPerimeterSpacing=0;rounded=0;fillColor=#dae8fc;strokeColor=#6c8ebf;" edge="1" target="5ybgmyVkbaXbAMV7yP6f-20" parent="1">
          <mxGeometry relative="1" as="geometry">
            <mxPoint x="980" y="160" as="sourcePoint" />
            <Array as="points">
              <mxPoint x="1030" y="130" />
              <mxPoint x="1030" y="130" />
              <mxPoint x="1030" y="140" />
            </Array>
          </mxGeometry>
        </mxCell>
        <mxCell id="5ybgmyVkbaXbAMV7yP6f-23" value="&lt;b&gt;AUC&lt;/b&gt; (area under the curve)" style="text;html=1;align=center;verticalAlign=middle;resizable=0;points=[];autosize=1;strokeColor=none;fillColor=none;" vertex="1" parent="1">
          <mxGeometry x="1040" y="140" width="170" height="30" as="geometry" />
        </mxCell>
        <mxCell id="5ybgmyVkbaXbAMV7yP6f-25" value="&lt;b&gt;ROC&lt;/b&gt; (receiver operating characteristic curve)" style="text;html=1;align=center;verticalAlign=middle;resizable=0;points=[];autosize=1;strokeColor=none;fillColor=none;" vertex="1" parent="1">
          <mxGeometry x="1040" y="160" width="260" height="30" as="geometry" />
        </mxCell>
        <mxCell id="5ybgmyVkbaXbAMV7yP6f-26" value="" style="endArrow=classic;html=1;rounded=0;exitX=0.75;exitY=0;exitDx=0;exitDy=0;entryX=0.5;entryY=1;entryDx=0;entryDy=0;fillColor=#d5e8d4;strokeColor=#82b366;" edge="1" parent="1" source="2c924340bb9dbf6c-10" target="5ybgmyVkbaXbAMV7yP6f-28">
          <mxGeometry relative="1" as="geometry">
            <mxPoint x="380" y="10" as="sourcePoint" />
            <mxPoint x="400" y="-150" as="targetPoint" />
          </mxGeometry>
        </mxCell>
        <mxCell id="5ybgmyVkbaXbAMV7yP6f-27" value="&lt;b&gt;&lt;font style=&quot;font-size: 13px;&quot;&gt;Vectorize&lt;/font&gt;&lt;/b&gt;" style="edgeLabel;resizable=0;html=1;;align=center;verticalAlign=middle;" connectable="0" vertex="1" parent="5ybgmyVkbaXbAMV7yP6f-26">
          <mxGeometry relative="1" as="geometry" />
        </mxCell>
        <mxCell id="5ybgmyVkbaXbAMV7yP6f-28" value="Turning data into tensors - numerical representation" style="shape=ext;double=1;rounded=1;whiteSpace=wrap;html=1;" vertex="1" parent="1">
          <mxGeometry x="340" y="-230" width="120" height="80" as="geometry" />
        </mxCell>
        <mxCell id="5ybgmyVkbaXbAMV7yP6f-29" value="" style="curved=1;endArrow=classic;html=1;rounded=0;exitX=0.25;exitY=0;exitDx=0;exitDy=0;entryX=0.936;entryY=0.714;entryDx=0;entryDy=0;entryPerimeter=0;fillColor=#d5e8d4;strokeColor=#82b366;" edge="1" parent="1" source="2c924340bb9dbf6c-10" target="5ybgmyVkbaXbAMV7yP6f-32">
          <mxGeometry width="50" height="50" relative="1" as="geometry">
            <mxPoint x="350" as="sourcePoint" />
            <mxPoint x="280" y="-100" as="targetPoint" />
            <Array as="points">
              <mxPoint x="300" />
              <mxPoint x="350" y="-50" />
            </Array>
          </mxGeometry>
        </mxCell>
        <mxCell id="5ybgmyVkbaXbAMV7yP6f-31" value="&lt;b&gt;&lt;font style=&quot;font-size: 12px;&quot;&gt;Normalize&lt;/font&gt;&lt;/b&gt;" style="edgeLabel;html=1;align=center;verticalAlign=middle;resizable=0;points=[];" vertex="1" connectable="0" parent="5ybgmyVkbaXbAMV7yP6f-29">
          <mxGeometry x="-0.5728" y="-6" relative="1" as="geometry">
            <mxPoint x="17" y="-13" as="offset" />
          </mxGeometry>
        </mxCell>
        <mxCell id="5ybgmyVkbaXbAMV7yP6f-32" value="&lt;b&gt;range 0-1&lt;br&gt;STD DEV 1&lt;br&gt;Mean 0&lt;/b&gt;" style="ellipse;shape=doubleEllipse;whiteSpace=wrap;html=1;" vertex="1" parent="1">
          <mxGeometry x="180" y="-150" width="100" height="60" as="geometry" />
        </mxCell>
        <mxCell id="5ybgmyVkbaXbAMV7yP6f-33" value="Take small values" style="whiteSpace=wrap;html=1;rounded=1;arcSize=50;align=center;verticalAlign=middle;strokeWidth=1;autosize=1;spacing=4;treeFolding=1;treeMoving=1;newEdgeStyle={&quot;edgeStyle&quot;:&quot;entityRelationEdgeStyle&quot;,&quot;startArrow&quot;:&quot;none&quot;,&quot;endArrow&quot;:&quot;none&quot;,&quot;segment&quot;:10,&quot;curved&quot;:1,&quot;sourcePerimeterSpacing&quot;:0,&quot;targetPerimeterSpacing&quot;:0};flipH=0;" vertex="1" parent="1">
          <mxGeometry x="120" y="-250" width="140" height="30" as="geometry" />
        </mxCell>
        <mxCell id="5ybgmyVkbaXbAMV7yP6f-34" value="" style="edgeStyle=entityRelationEdgeStyle;startArrow=none;endArrow=none;segment=10;curved=1;sourcePerimeterSpacing=0;targetPerimeterSpacing=0;rounded=0;exitX=0.5;exitY=0;exitDx=0;exitDy=0;fillColor=#d5e8d4;strokeColor=#82b366;" edge="1" target="5ybgmyVkbaXbAMV7yP6f-33" parent="1" source="5ybgmyVkbaXbAMV7yP6f-32">
          <mxGeometry relative="1" as="geometry">
            <mxPoint x="310" y="-215" as="sourcePoint" />
          </mxGeometry>
        </mxCell>
        <mxCell id="5ybgmyVkbaXbAMV7yP6f-35" value="homogenous" style="whiteSpace=wrap;html=1;rounded=1;arcSize=50;align=center;verticalAlign=middle;strokeWidth=1;autosize=1;spacing=4;treeFolding=1;treeMoving=1;newEdgeStyle={&quot;edgeStyle&quot;:&quot;entityRelationEdgeStyle&quot;,&quot;startArrow&quot;:&quot;none&quot;,&quot;endArrow&quot;:&quot;none&quot;,&quot;segment&quot;:10,&quot;curved&quot;:1,&quot;sourcePerimeterSpacing&quot;:0,&quot;targetPerimeterSpacing&quot;:0};" vertex="1" parent="1">
          <mxGeometry x="120" y="-205" width="130" height="30" as="geometry" />
        </mxCell>
        <mxCell id="5ybgmyVkbaXbAMV7yP6f-36" value="" style="edgeStyle=entityRelationEdgeStyle;startArrow=none;endArrow=none;segment=10;curved=1;sourcePerimeterSpacing=0;targetPerimeterSpacing=0;rounded=0;fillColor=#d5e8d4;strokeColor=#82b366;" edge="1" parent="1">
          <mxGeometry relative="1" as="geometry">
            <mxPoint x="155" y="-175" as="sourcePoint" />
            <mxPoint x="180" y="-115" as="targetPoint" />
            <Array as="points">
              <mxPoint x="195" y="-165" />
              <mxPoint x="125" y="-135" />
              <mxPoint x="225" y="-165" />
              <mxPoint x="95" y="-115" />
              <mxPoint x="185" y="-155" />
              <mxPoint x="115" y="-105" />
              <mxPoint x="170" y="-175" />
              <mxPoint x="145" y="-125" />
            </Array>
          </mxGeometry>
        </mxCell>
        <mxCell id="5ybgmyVkbaXbAMV7yP6f-37" value="" style="endArrow=classic;html=1;rounded=0;exitX=0;exitY=0.25;exitDx=0;exitDy=0;entryX=1;entryY=1;entryDx=0;entryDy=0;fillColor=#d5e8d4;strokeColor=#82b366;" edge="1" parent="1" source="2c924340bb9dbf6c-10" target="5ybgmyVkbaXbAMV7yP6f-40">
          <mxGeometry relative="1" as="geometry">
            <mxPoint x="100" y="-10" as="sourcePoint" />
            <mxPoint x="120" y="-20" as="targetPoint" />
          </mxGeometry>
        </mxCell>
        <mxCell id="5ybgmyVkbaXbAMV7yP6f-38" value="&lt;b&gt;&lt;font style=&quot;font-size: 12px;&quot;&gt;Missing Values&lt;/font&gt;&lt;/b&gt;" style="edgeLabel;resizable=0;html=1;;align=center;verticalAlign=middle;" connectable="0" vertex="1" parent="5ybgmyVkbaXbAMV7yP6f-37">
          <mxGeometry relative="1" as="geometry" />
        </mxCell>
        <mxCell id="5ybgmyVkbaXbAMV7yP6f-40" value="&lt;b&gt;Mean&lt;/b&gt; &amp;amp; &lt;b&gt;Median&lt;/b&gt;&lt;br&gt;to fill" style="shape=trapezoid;perimeter=trapezoidPerimeter;whiteSpace=wrap;html=1;fixedSize=1;" vertex="1" parent="1">
          <mxGeometry x="-10" y="-90" width="120" height="60" as="geometry" />
        </mxCell>
        <mxCell id="5ybgmyVkbaXbAMV7yP6f-41" value="" style="endArrow=classic;html=1;rounded=0;exitX=0;exitY=0.25;exitDx=0;exitDy=0;entryX=1;entryY=0.5;entryDx=0;entryDy=0;fillColor=#d5e8d4;strokeColor=#82b366;" edge="1" parent="1" source="2c924340bb9dbf6c-8" target="5ybgmyVkbaXbAMV7yP6f-42">
          <mxGeometry width="50" height="50" relative="1" as="geometry">
            <mxPoint x="-10" y="160" as="sourcePoint" />
            <mxPoint y="160" as="targetPoint" />
          </mxGeometry>
        </mxCell>
        <mxCell id="5ybgmyVkbaXbAMV7yP6f-43" value="&lt;b&gt;Plenty of data&lt;/b&gt;" style="edgeLabel;html=1;align=center;verticalAlign=middle;resizable=0;points=[];" vertex="1" connectable="0" parent="5ybgmyVkbaXbAMV7yP6f-41">
          <mxGeometry x="-0.0926" y="-1" relative="1" as="geometry">
            <mxPoint as="offset" />
          </mxGeometry>
        </mxCell>
        <mxCell id="5ybgmyVkbaXbAMV7yP6f-42" value="Hold out validation" style="ellipse;whiteSpace=wrap;html=1;align=center;newEdgeStyle={&quot;edgeStyle&quot;:&quot;entityRelationEdgeStyle&quot;,&quot;startArrow&quot;:&quot;none&quot;,&quot;endArrow&quot;:&quot;none&quot;,&quot;segment&quot;:10,&quot;curved&quot;:1,&quot;sourcePerimeterSpacing&quot;:0,&quot;targetPerimeterSpacing&quot;:0};treeFolding=1;treeMoving=1;" vertex="1" parent="1">
          <mxGeometry x="-110" y="140" width="100" height="40" as="geometry" />
        </mxCell>
        <mxCell id="5ybgmyVkbaXbAMV7yP6f-45" value="K-fold Cross" style="ellipse;whiteSpace=wrap;html=1;align=center;newEdgeStyle={&quot;edgeStyle&quot;:&quot;entityRelationEdgeStyle&quot;,&quot;startArrow&quot;:&quot;none&quot;,&quot;endArrow&quot;:&quot;none&quot;,&quot;segment&quot;:10,&quot;curved&quot;:1,&quot;sourcePerimeterSpacing&quot;:0,&quot;targetPerimeterSpacing&quot;:0};treeFolding=1;treeMoving=1;" vertex="1" parent="1">
          <mxGeometry x="-110" y="190" width="100" height="40" as="geometry" />
        </mxCell>
        <mxCell id="5ybgmyVkbaXbAMV7yP6f-46" value="" style="endArrow=classic;html=1;rounded=0;exitX=0;exitY=0.75;exitDx=0;exitDy=0;entryX=1;entryY=0.5;entryDx=0;entryDy=0;fillColor=#d5e8d4;strokeColor=#82b366;" edge="1" parent="1" source="2c924340bb9dbf6c-8" target="5ybgmyVkbaXbAMV7yP6f-45">
          <mxGeometry width="50" height="50" relative="1" as="geometry">
            <mxPoint y="270" as="sourcePoint" />
            <mxPoint x="50" y="220" as="targetPoint" />
          </mxGeometry>
        </mxCell>
        <mxCell id="5ybgmyVkbaXbAMV7yP6f-47" value="&lt;b&gt;Not enough data&lt;/b&gt;" style="edgeLabel;html=1;align=center;verticalAlign=middle;resizable=0;points=[];" vertex="1" connectable="0" parent="5ybgmyVkbaXbAMV7yP6f-46">
          <mxGeometry x="-0.288" y="1" relative="1" as="geometry">
            <mxPoint as="offset" />
          </mxGeometry>
        </mxCell>
        <mxCell id="5ybgmyVkbaXbAMV7yP6f-48" value="" style="endArrow=classic;html=1;rounded=0;exitX=0.158;exitY=1.077;exitDx=0;exitDy=0;exitPerimeter=0;entryX=1;entryY=0.5;entryDx=0;entryDy=0;fillColor=#d5e8d4;strokeColor=#82b366;" edge="1" parent="1" source="2c924340bb9dbf6c-8" target="5ybgmyVkbaXbAMV7yP6f-50">
          <mxGeometry width="50" height="50" relative="1" as="geometry">
            <mxPoint x="20" y="290" as="sourcePoint" />
            <mxPoint y="260" as="targetPoint" />
          </mxGeometry>
        </mxCell>
        <mxCell id="5ybgmyVkbaXbAMV7yP6f-49" value="&lt;b&gt;little data&lt;/b&gt;" style="edgeLabel;html=1;align=center;verticalAlign=middle;resizable=0;points=[];" vertex="1" connectable="0" parent="5ybgmyVkbaXbAMV7yP6f-48">
          <mxGeometry x="0.4841" y="1" relative="1" as="geometry">
            <mxPoint x="16" y="-3" as="offset" />
          </mxGeometry>
        </mxCell>
        <mxCell id="5ybgmyVkbaXbAMV7yP6f-50" value="Iterated&lt;div&gt;K-fold&lt;/div&gt;" style="ellipse;whiteSpace=wrap;html=1;align=center;newEdgeStyle={&quot;edgeStyle&quot;:&quot;entityRelationEdgeStyle&quot;,&quot;startArrow&quot;:&quot;none&quot;,&quot;endArrow&quot;:&quot;none&quot;,&quot;segment&quot;:10,&quot;curved&quot;:1,&quot;sourcePerimeterSpacing&quot;:0,&quot;targetPerimeterSpacing&quot;:0};treeFolding=1;treeMoving=1;" vertex="1" parent="1">
          <mxGeometry x="-110" y="240" width="100" height="40" as="geometry" />
        </mxCell>
        <mxCell id="5ybgmyVkbaXbAMV7yP6f-52" value="" style="endArrow=classic;html=1;rounded=0;exitX=0.108;exitY=-0.003;exitDx=0;exitDy=0;exitPerimeter=0;entryX=1;entryY=1;entryDx=0;entryDy=0;fillColor=#d5e8d4;strokeColor=#82b366;" edge="1" parent="1" source="2c924340bb9dbf6c-1" target="5ybgmyVkbaXbAMV7yP6f-54">
          <mxGeometry width="50" height="50" relative="1" as="geometry">
            <mxPoint x="-70" y="40" as="sourcePoint" />
            <mxPoint x="-110" y="-20" as="targetPoint" />
          </mxGeometry>
        </mxCell>
        <mxCell id="5ybgmyVkbaXbAMV7yP6f-53" value="Feature&lt;div&gt;Eng&lt;/div&gt;" style="edgeLabel;html=1;align=center;verticalAlign=middle;resizable=0;points=[];" vertex="1" connectable="0" parent="5ybgmyVkbaXbAMV7yP6f-52">
          <mxGeometry x="0.283" y="2" relative="1" as="geometry">
            <mxPoint as="offset" />
          </mxGeometry>
        </mxCell>
        <mxCell id="5ybgmyVkbaXbAMV7yP6f-54" value="filter uninformative features&lt;div&gt;&lt;br&gt;&lt;/div&gt;&lt;div&gt;develop new&lt;/div&gt;" style="shape=ext;double=1;whiteSpace=wrap;html=1;aspect=fixed;" vertex="1" parent="1">
          <mxGeometry x="-220" y="-100" width="80" height="80" as="geometry" />
        </mxCell>
        <mxCell id="5ybgmyVkbaXbAMV7yP6f-55" value="" style="endArrow=classic;html=1;rounded=0;exitX=0;exitY=0.25;exitDx=0;exitDy=0;entryX=1;entryY=0.5;entryDx=0;entryDy=0;fillColor=#d5e8d4;strokeColor=#82b366;" edge="1" parent="1" source="2c924340bb9dbf6c-1" target="5ybgmyVkbaXbAMV7yP6f-57">
          <mxGeometry width="50" height="50" relative="1" as="geometry">
            <mxPoint x="-160" y="90" as="sourcePoint" />
            <mxPoint x="-160" y="40" as="targetPoint" />
          </mxGeometry>
        </mxCell>
        <mxCell id="5ybgmyVkbaXbAMV7yP6f-56" value="Architecture&lt;div&gt;Priors&lt;/div&gt;" style="edgeLabel;html=1;align=center;verticalAlign=middle;resizable=0;points=[];" vertex="1" connectable="0" parent="5ybgmyVkbaXbAMV7yP6f-55">
          <mxGeometry x="0.2581" relative="1" as="geometry">
            <mxPoint as="offset" />
          </mxGeometry>
        </mxCell>
        <mxCell id="5ybgmyVkbaXbAMV7yP6f-57" value="Densely connected?&lt;div&gt;covnet?&lt;/div&gt;&lt;div&gt;RNN?&lt;/div&gt;&lt;div&gt;Transformer?&lt;/div&gt;" style="ellipse;whiteSpace=wrap;html=1;" vertex="1" parent="1">
          <mxGeometry x="-320" y="-10" width="140" height="110" as="geometry" />
        </mxCell>
        <mxCell id="5ybgmyVkbaXbAMV7yP6f-58" value="" style="endArrow=classic;html=1;rounded=0;exitX=0;exitY=1;exitDx=0;exitDy=0;fillColor=#d5e8d4;strokeColor=#82b366;entryX=1;entryY=0;entryDx=0;entryDy=0;" edge="1" parent="1" source="2c924340bb9dbf6c-1" target="5ybgmyVkbaXbAMV7yP6f-60">
          <mxGeometry width="50" height="50" relative="1" as="geometry">
            <mxPoint x="-220" y="170" as="sourcePoint" />
            <mxPoint x="-200" y="140" as="targetPoint" />
          </mxGeometry>
        </mxCell>
        <mxCell id="5ybgmyVkbaXbAMV7yP6f-59" value="Training Config" style="edgeLabel;html=1;align=center;verticalAlign=middle;resizable=0;points=[];" vertex="1" connectable="0" parent="5ybgmyVkbaXbAMV7yP6f-58">
          <mxGeometry x="0.251" y="2" relative="1" as="geometry">
            <mxPoint as="offset" />
          </mxGeometry>
        </mxCell>
        <mxCell id="5ybgmyVkbaXbAMV7yP6f-60" value="Which loss function?&lt;br&gt;Batch size?&lt;div&gt;Learning rate?&lt;/div&gt;" style="rounded=1;whiteSpace=wrap;html=1;" vertex="1" parent="1">
          <mxGeometry x="-350" y="140" width="120" height="60" as="geometry" />
        </mxCell>
        <mxCell id="5ybgmyVkbaXbAMV7yP6f-61" value="" style="endArrow=classic;html=1;rounded=0;exitX=0;exitY=0;exitDx=0;exitDy=0;entryX=0.94;entryY=1.021;entryDx=0;entryDy=0;entryPerimeter=0;" edge="1" parent="1" source="5ybgmyVkbaXbAMV7yP6f-60" target="5ybgmyVkbaXbAMV7yP6f-64">
          <mxGeometry width="50" height="50" relative="1" as="geometry">
            <mxPoint x="-400" y="150" as="sourcePoint" />
            <mxPoint x="-440" y="70" as="targetPoint" />
          </mxGeometry>
        </mxCell>
        <mxCell id="5ybgmyVkbaXbAMV7yP6f-62" value="" style="endArrow=classic;html=1;rounded=0;exitX=-0.012;exitY=0.359;exitDx=0;exitDy=0;exitPerimeter=0;entryX=1;entryY=0.5;entryDx=0;entryDy=0;" edge="1" parent="1" source="5ybgmyVkbaXbAMV7yP6f-57" target="5ybgmyVkbaXbAMV7yP6f-64">
          <mxGeometry width="50" height="50" relative="1" as="geometry">
            <mxPoint x="-330" y="30" as="sourcePoint" />
            <mxPoint x="-410" as="targetPoint" />
          </mxGeometry>
        </mxCell>
        <mxCell id="5ybgmyVkbaXbAMV7yP6f-63" value="" style="endArrow=classic;html=1;rounded=0;exitX=0;exitY=0;exitDx=0;exitDy=0;entryX=1;entryY=0;entryDx=0;entryDy=0;" edge="1" parent="1" source="5ybgmyVkbaXbAMV7yP6f-54" target="5ybgmyVkbaXbAMV7yP6f-64">
          <mxGeometry width="50" height="50" relative="1" as="geometry">
            <mxPoint x="-370" y="-70" as="sourcePoint" />
            <mxPoint x="-410" y="-50" as="targetPoint" />
          </mxGeometry>
        </mxCell>
        <mxCell id="5ybgmyVkbaXbAMV7yP6f-64" value="&lt;b&gt;KerasTuner&lt;/b&gt;&lt;br&gt;Automated hyperparameter tuning" style="rounded=0;whiteSpace=wrap;html=1;" vertex="1" parent="1">
          <mxGeometry x="-570" y="-70" width="120" height="90" as="geometry" />
        </mxCell>
        <mxCell id="5ybgmyVkbaXbAMV7yP6f-65" value="" style="endArrow=classic;html=1;rounded=0;exitX=1;exitY=0.5;exitDx=0;exitDy=0;entryX=0;entryY=0.5;entryDx=0;entryDy=0;fillColor=#e1d5e7;strokeColor=#9673a6;" edge="1" parent="1" source="2c924340bb9dbf6c-12" target="5ybgmyVkbaXbAMV7yP6f-67">
          <mxGeometry width="50" height="50" relative="1" as="geometry">
            <mxPoint x="960" y="470" as="sourcePoint" />
            <mxPoint x="1120" y="440" as="targetPoint" />
          </mxGeometry>
        </mxCell>
        <mxCell id="5ybgmyVkbaXbAMV7yP6f-66" value="&lt;font style=&quot;color: rgb(255, 51, 51);&quot;&gt;&lt;b&gt;FAILURES&lt;/b&gt;&lt;/font&gt;" style="edgeLabel;html=1;align=center;verticalAlign=middle;resizable=0;points=[];" vertex="1" connectable="0" parent="5ybgmyVkbaXbAMV7yP6f-65">
          <mxGeometry x="-0.1224" y="1" relative="1" as="geometry">
            <mxPoint as="offset" />
          </mxGeometry>
        </mxCell>
        <mxCell id="5ybgmyVkbaXbAMV7yP6f-67" value="Show incorrectly classified samples" style="ellipse;whiteSpace=wrap;html=1;" vertex="1" parent="1">
          <mxGeometry x="1130" y="400" width="120" height="80" as="geometry" />
        </mxCell>
        <mxCell id="5ybgmyVkbaXbAMV7yP6f-76" value="" style="edgeStyle=orthogonalEdgeStyle;rounded=0;orthogonalLoop=1;jettySize=auto;html=1;fillColor=#e1d5e7;strokeColor=#9673a6;" edge="1" parent="1" source="5ybgmyVkbaXbAMV7yP6f-68" target="5ybgmyVkbaXbAMV7yP6f-75">
          <mxGeometry relative="1" as="geometry" />
        </mxCell>
        <mxCell id="5ybgmyVkbaXbAMV7yP6f-68" value="&lt;span&gt;only used to output predictions&lt;/span&gt;" style="whiteSpace=wrap;html=1;rounded=1;shadow=1;comic=0;labelBackgroundColor=none;strokeWidth=2;fontFamily=Verdana;fontSize=12;align=center;arcSize=50;" vertex="1" parent="1">
          <mxGeometry x="1040" y="540" width="130" height="50" as="geometry" />
        </mxCell>
        <mxCell id="5ybgmyVkbaXbAMV7yP6f-74" value="" style="edgeStyle=orthogonalEdgeStyle;rounded=0;orthogonalLoop=1;jettySize=auto;html=1;fillColor=#e1d5e7;strokeColor=#9673a6;" edge="1" parent="1" source="5ybgmyVkbaXbAMV7yP6f-71" target="5ybgmyVkbaXbAMV7yP6f-73">
          <mxGeometry relative="1" as="geometry" />
        </mxCell>
        <mxCell id="5ybgmyVkbaXbAMV7yP6f-71" value="deploy to device or browser" style="shape=singleArrow;whiteSpace=wrap;html=1;arrowWidth=0.4;arrowSize=0.4;fontFamily=Verdana;rounded=1;shadow=1;comic=0;labelBackgroundColor=none;strokeWidth=2;arcSize=50;" vertex="1" parent="1">
          <mxGeometry x="790" y="620" width="150" height="80" as="geometry" />
        </mxCell>
        <mxCell id="5ybgmyVkbaXbAMV7yP6f-73" value="&lt;b&gt;TensorFlow.js&lt;/b&gt;" style="rounded=1;whiteSpace=wrap;html=1;fontFamily=Verdana;shadow=1;comic=0;labelBackgroundColor=none;strokeWidth=2;arcSize=50;" vertex="1" parent="1">
          <mxGeometry x="1035" y="630" width="120" height="60" as="geometry" />
        </mxCell>
        <mxCell id="5ybgmyVkbaXbAMV7yP6f-75" value="&lt;b&gt;Prune&lt;/b&gt; &lt;b&gt;weights&lt;/b&gt; to keep only &lt;b&gt;significant&lt;/b&gt;&lt;br&gt;&lt;br&gt;&lt;b&gt;Quantize&lt;/b&gt; bits to &lt;b&gt;compress&lt;/b&gt; &lt;b&gt;model&lt;/b&gt;" style="ellipse;whiteSpace=wrap;html=1;fontFamily=Verdana;rounded=1;shadow=1;comic=0;labelBackgroundColor=none;strokeWidth=2;arcSize=50;" vertex="1" parent="1">
          <mxGeometry x="1275" y="525" width="275" height="135" as="geometry" />
        </mxCell>
        <mxCell id="5ybgmyVkbaXbAMV7yP6f-77" value="&amp;nbsp; &amp;nbsp; &amp;nbsp; &amp;nbsp; &amp;nbsp; &amp;nbsp; &amp;nbsp; &lt;b&gt;subset&lt;/b&gt; to new model&lt;div&gt;&amp;nbsp; &amp;nbsp; &amp;nbsp; &amp;nbsp; &amp;nbsp; &amp;nbsp; &amp;nbsp; &amp;nbsp; &amp;nbsp; &amp;nbsp; &amp;nbsp; &lt;b&gt;control&lt;/b&gt; &lt;b&gt;set&lt;/b&gt; stick to the old&lt;/div&gt;" style="triangle;whiteSpace=wrap;html=1;fontFamily=Verdana;rounded=1;shadow=1;comic=0;labelBackgroundColor=none;strokeWidth=2;direction=west;" vertex="1" parent="1">
          <mxGeometry x="250" y="440" width="270" height="120" as="geometry" />
        </mxCell>
      </root>
    </mxGraphModel>
  </diagram>
</mxfile>
